<svg width="258" height="67" viewBox="0 0 258 67" fill="none" xmlns="http://www.w3.org/2000/svg">
<g clip-path="url(#clip0_51_2149)">
<path d="M0 24.5C0 24.5 39.8 19.3 41 19.1C42.7 18.8 44.3 18.5 45.7 18.1C48.9 17.2 51.9 15.9 54.5 14.1C57 12.4 59.4 9.9 61.7 7.2C63.2 5.5 64.7 3.2 66.2 1V0C64.5 2.6 62.8 4.8 61.1 6.7C58.8 9.3 56.4 11.4 53.9 13C51.4 14.6 48.5 15.9 45.4 16.7C44 17.1 42.5 17.3 40.8 17.6C39.7 17.8 38.6 17.9 37.5 18C37 18 0 21.9 0 21.9V24.5Z" fill="white"/>
<path d="M53.4 17.8C50.9 19.2 48 20.3 44.8 20.9C43.4 21.2 42 21.4 40.3 21.6C39.3 21.7 38.3 21.8 37.3 21.9C36.8 21.9 36.2 22 35.7 22C23.5 23.2 11.4 24.3 0 25.4V28C11.4 26.6 23.7 25.1 35.9 23.7C36.4 23.6 37 23.6 37.5 23.5C38.5 23.4 39.5 23.3 40.5 23.1C42.2 22.9 43.8 22.5999 45.1 22.2999C48.4 21.5999 51.4 20.4 54 18.8C56.6 17.2 58.8 15.1 61.3 12.4C62.8 10.7 64.5 8.39995 66.1 6.19995V5.19995C64.2 7.69995 62.5 9.89995 60.7 11.7C58.3 14.4 55.9 16.4 53.4 17.8Z" fill="white"/>
<path d="M60.4 17.1999C58 19.3999 55.4 21.1999 52.9 22.4999C50.4 23.6999 47.6 24.5999 44.3 25.0999C42.9 25.2999 41.5 25.4999 39.8 25.6999L0 28.8999V31.4999L35.3 27.6999L39.9 27.1999C41.6 26.9999 43.1 26.7999 44.5 26.4999C47.9 25.8999 50.8 24.8999 53.4 23.5999C56.1 22.1999 58.7 19.9999 61.2 17.5999C62.9 15.9999 64.4 13.8999 66.1 11.7999V10.8999C64.1 13.3999 62.3 15.3999 60.4 17.1999Z" fill="white"/>
<path d="M50.8 30.6C48.5 31.9 46.8 32.7 43.5 33C41.5 33.2 39.5 33.3 37.5 33.4C36.5 33.4 35.6 33.4998 34.6 33.5998C28.6 33.8998 22.7 34.3 16.7 34.7L0 35.9V38.5L16.8 36.9C22.2 36.4 28.5 35.7999 34.7 35.2999L39.2 35C40.9 34.9 42.4 34.7 43.7 34.5C47.1 34.1 50 33.4 52.6 32.4C55.4 31.4 58 29.6999 60.6 27.7999C63 26.0999 66.2 22.7 66.2 22.6V21.7C64.1 23.8 62.8 25 60.5 26.5C57.6 28.5 52.9 29.5 50.8 30.6Z" fill="white"/>
<path d="M51.6 35.5999C49.1 36.2999 46.3 36.7999 43 37.0999C41.7 37.1999 40.2 37.2999 38.6 37.3999L34.2 37.5999C23.2 38.0999 12.2 38.6999 0.0999756 39.2999V41.8999C11.7 40.9999 23 40.0999 34.4 39.2999L38.8 38.9999C40.5 38.8999 41.9 38.7999 43.3 38.5999C46.7 38.1999 49.6 37.5999 52.1 36.7999C54.9 35.8999 57.7 34.5999 60.3 32.8999C62.2 31.6999 64.2 30.1999 66.2 28.3999C64 30.2999 61.9 30.6999 59.8 31.9999C57.1 33.5999 54.4 34.7999 51.6 35.5999Z" fill="white"/>
<path d="M51.2 39.9C48.7 40.5 45.9 40.8998 42.6 41.0998C41.3 41.1998 39.9 41.2999 38.2 41.2999L33.8 41.5C22.7 41.9 11.5 42.4 0 42.9V45.5C11.4 44.7 22.6 44 33.9 43.2L38.3 42.9C40 42.8 41.4 42.6998 42.7 42.5998C46.1 42.2998 48.9 41.7998 51.5 41.0998C54.4 40.2998 57.2 39.1999 59.9 37.7999C62 36.6999 64 35.3999 66.1 33.7999V32.7C63.8 34.4 61.6 35.6999 59.4 36.7999C56.8 38.1999 54 39.2 51.2 39.9Z" fill="white"/>
<path d="M50.8 44.0998C48.3 44.5998 45.5 44.9 42.2 45C40.9 45.1 39.6 45.1 37.9 45.2L0 46.2V48.7999L33.6 47L38 46.7999C39.7 46.6999 41.1 46.6 42.4 46.5C45.8 46.2 48.5 45.8999 51.1 45.2999C54 44.6999 56.9 43.7998 59.6 42.5998C61.8 41.6998 63.9 40.6 66.2 39.2V38.2C63.8 39.6 61.5 40.6998 59.2 41.5998C56.5 42.7998 53.7 43.5998 50.8 44.0998Z" fill="white"/>
<path d="M50.5 48.3C45.8 48.9 41.1 49 36.4 49.1C35.3 49.1 34.3 49.1001 33.2 49.2001L0 49.8V52.4002L33.3 51C34.4 51 35.4 50.9002 36.5 50.9002C41.2 50.7002 46 50.5 50.7 49.8C53.7 49.3 56.6 48.6001 59.2 47.7001C61.4 47.0001 63.7 46 66 44.8V43.8C63.6 44.9 61.1 45.9 58.8 46.6C56.3 47.3 53.5 48 50.5 48.3Z" fill="white"/>
<path d="M50.3 52.5998C45.9 52.9998 41.5 53 37.1 53C35.8 53 34.4 53 33.1 53C22.1 53 11.1 53.1 0 53.2V55.7999C10.6 55.3999 21.9 55.1 33.2 54.7C34.5 54.7 35.9 54.5998 37.2 54.5998C41.5 54.4998 46 54.4 50.4 53.9C53.5 53.6 56.3 53.1 59 52.4C61.3 51.8 63.7 50.9998 66.2 50.0998V49.2C63.7 50.1 61.2 50.8 58.8 51.4C56.1 52 53.3 52.3998 50.3 52.5998Z" fill="white"/>
<path d="M50.1 56.7999C48.3 56.8999 46.3 56.8999 44.1 56.8999C43.3 56.8999 42.4 56.8999 41.6 56.8999L33 56.7999C27.1 56.7999 21.3 56.6999 15.8 56.6999L0 56.7999V59.3999L15.9 58.9999C21.4 58.8999 27.2 58.6999 33 58.5999L41.6 58.4999C44 58.4999 47.1 58.3999 50.2 58.1999C53.3 57.9999 56.1 57.6999 58.8 57.2999C61.2 56.8999 63.7 56.3999 66.2 55.7999V54.8999C63.7 55.4999 61.1 55.9999 58.7 56.2999C55.9 56.4999 53.2 56.6999 50.1 56.7999Z" fill="white"/>
<path d="M41.5 60.9L32.9 60.8C22 60.6 11.1 60.4 0 60.2V62.8C10.6 62.7 21.8 62.6 32.9 62.5L41.5 62.4C44.4 62.4 47.2 62.3 50.1 62.2C56 62 61.2 61.6 66.2 60.9V60C61.3 60.5 56 60.8 50.1 60.9C47.2 60.9 44.3 60.9 41.5 60.9Z" fill="white"/>
<path d="M66.1 65.5L0 63.8V66.4002H66.1V65.5Z" fill="white"/>
<path d="M60.2 21.9999C57.7 23.9999 55.7 25.4999 52.7 26.6999C50 27.7999 47.1 28.1999 43.9 28.6999C41.8 28.9999 39.6 29.3999 37.5 29.5999C36.6 29.6999 35.8 29.6999 34.9 29.7999L0 32.2999V34.8999L34.9 31.4999L39.4 31.0999C41.1 30.8999 42.6 30.7999 44 30.4999C47.4 29.9999 50.3 29.0999 52.9 27.8999C55.6 26.6999 58.4 24.6999 60.9 22.5999C62.6 21.0999 64.3 19.2999 66.1 17.2999V16.3999C63.9 18.5999 62.1 20.4999 60.2 21.9999Z" fill="white"/>
<path d="M94.2 0C94.2 0 106.1 18.9 108.3 22.4C110.5 25.9 113 28.6 121.8 30.5C130.6 32.4 134.4 33.2 134.4 33.2V33.9C134.4 33.9 128.8 32.7 121.6 31.1C114.4 29.5 111.5 29 108.2 24.4C105.5 20.6 94.2 4.5 94.2 4.5V0Z" fill="white"/>
<path d="M94.2 21.6001C94.2 21.6001 105 32.9001 108.2 36.2001C111.5 39.7001 115.8 40.9001 121.7 42.0001C127.3 43.0001 134.4 44.2001 134.4 44.2001V44.8001C134.4 44.8001 127.7 43.7001 121.7 42.7001C115.8 41.7001 111.6 41.1001 108.2 38.0001C105.2 35.2001 94.3 25.0001 94.3 25.0001L94.2 21.6001Z" fill="white"/>
<path d="M94.2 26.8C94.2 26.8 104.5 36.4 108.2 39.6C111.6 42.6 114.3 43.5002 121.7 44.9002C129.1 46.2002 134.4 47 134.4 47V47.7001C134.4 47.7001 127.7 46.6 121.7 45.6C115.7 44.6 111.8 44.3 108.2 41.3C104 37.9 94.2 29.9 94.2 29.9V26.8Z" fill="white"/>
<path d="M94.2 32.2C94.2 32.2 106 41.5 108.2 43.2C110.4 44.8 113.3 46.7 121.7 48C130.1 49.2 134.4 49.7999 134.4 49.7999V50.5C134.4 50.5 126.8 49.3999 121.7 48.7999C116.6 48.1999 112.7 47.9 108.2 44.9C103.8 42 94.2 35.2 94.2 35.2V32.2Z" fill="white"/>
<path d="M94.2 37.3999C94.2 37.3999 106 45.2999 108.2 46.4999C110.4 47.6999 113.1 49.7999 121.7 50.8999C130.3 51.9999 134.4 52.4999 134.4 52.4999V53.1999C134.4 53.1999 127.3 52.3999 121.7 51.7999C116.1 51.1999 112.3 50.3999 108.2 48.0999C104.1 45.7999 94.2 40.0999 94.2 40.0999V37.3999Z" fill="white"/>
<path d="M94.2 42.7C94.2 42.7 104.6 48.3998 108.2 50.0998C112.1 52.0998 115.5 52.9999 121.7 53.7999C127.8 54.4999 134.4 55.2 134.4 55.2V55.7999C134.4 55.7999 128.3 55.1 121.7 54.5C115.2 53.9 112.9 53.6 108.2 51.5C104 49.6 94.2 45.0998 94.2 45.0998V42.7Z" fill="white"/>
<path d="M94.2 48C94.2 48 102.4 51.5 108.2 53.8C113.9 56.1 118.2 56.3 121.7 56.6C123.2 56.8 134.3 57.9 134.3 57.9V58.5C134.3 58.5 127.7 58 121.6 57.4C115.6 56.9 113 56.6 108.1 55C103.2 53.4 94.1 50.2 94.1 50.2L94.2 48Z" fill="white"/>
<path d="M94.2 53.3999C94.2 53.3999 102.5 55.9999 108.2 57.4999C113.9 58.9999 119.1 59.5999 121.7 59.7999C124.3 59.9999 134.4 60.7999 134.4 60.7999V61.3999C134.4 61.3999 128.7 60.9999 121.7 60.4999C116 60.0999 111.5 59.6999 108.2 58.8999C104.5 58.0999 94.2 55.5999 94.2 55.5999V53.3999Z" fill="white"/>
<path d="M94.2 58.7C94.2 58.7 101 59.8998 108.2 61.0998C113.6 61.9998 120.9 62.5998 121.7 62.5998C122.5 62.5998 134.4 63.5 134.4 63.5V64.0998C134.4 64.0998 126.8 63.7 121.7 63.4C116.4 63.1 111.2 62.8 108.2 62.5C101.5 61.8 94.2 60.9 94.2 60.9V58.7Z" fill="white"/>
<path d="M94.2 64.3C94.2 64.3 104.9 64.7 108.2 64.8C111.5 64.9 134.4 65.8 134.4 65.8V66.4H94.2V64.3Z" fill="white"/>
<path d="M121.7 33.3999C112 31.2999 109.8 27.7999 108.2 25.5999C106.6 23.3999 94.3 5.3999 94.3 5.3999V9.4999C94.8 10.0999 105.3 23.8999 108.3 27.6999C111.6 31.9999 116.8 32.9999 121.8 33.9999C126.8 35.0999 134.5 36.5999 134.5 36.5999V35.9999C134.4 35.9999 124.2 33.9999 121.7 33.3999Z" fill="white"/>
<path d="M121.7 36.2999C113.7 34.6999 110.5 32.1999 108.2 29.1999C105.9 26.0999 94.3 10.8999 94.3 10.8999V14.6999C94.8 15.2999 105.4 27.7999 108.2 31.0999C111.5 34.8999 116.1 35.8999 121.7 36.8999C127.3 37.8999 134.4 39.2999 134.4 39.2999V38.6999C134.4 38.6999 126.3 37.1999 121.7 36.2999Z" fill="white"/>
<path d="M121.7 39.2001C113.4 37.6001 111.7 36.3001 108.2 32.4001C106 30.0001 94.7 16.7001 94.2 16.1001V19.6001C94.2 19.6001 104.7 30.8001 108.1 34.2001C112.5 38.6001 116.7 38.9001 121.6 39.8001C126.5 40.7001 134.3 42.1001 134.3 42.1001V41.5001C134.4 41.5001 125 39.9001 121.7 39.2001Z" fill="white"/>
<path d="M28 65.8001V28.1001H84.9V65.8001H28Z" fill="#001351" stroke="white"/>
<path d="M57.1 33.1001H59.1L57.5 34.4001L58.1 36.4001L56.5 35.2001L54.9 36.4001L55.5 34.4001L53.9 33.1001H55.9L56.5 31.1001L57.1 33.1001Z" fill="white"/>
<path d="M57.1 58.9H59.1L57.5 60.1L58.1 62L56.5 60.8L54.9 62L55.5 60.1L53.9 58.9H55.9L56.5 57L57.1 58.9Z" fill="white"/>
<path d="M63.5 57.2001H65.5L63.9001 58.4002L64.5 60.3L62.9001 59.1L61.3 60.3L61.9001 58.4002L60.3 57.2001H62.3L62.9001 55.3L63.5 57.2001Z" fill="white"/>
<path d="M63.5 34.7999H65.5L63.9 35.9999L64.5 37.8999L62.9 36.6999L61.3 37.9999L62 35.9999L60.4 34.7999H62.4L63 32.8999L63.5 34.7999Z" fill="white"/>
<path d="M68.3 39.5998H70.3L68.7 40.7999L69.3 42.7L67.7 41.5L66.1 42.7L66.7 40.7999L65.1 39.5998H67.1L67.7 37.7L68.3 39.5998Z" fill="white"/>
<path d="M68.3 52.5998H70.3L68.7 53.7999L69.3 55.7L67.7 54.5L66.1 55.7L66.7 53.7999L65.1 52.5998H67.1L67.7 50.7L68.3 52.5998Z" fill="white"/>
<path d="M70.1 46.0001H72.1L70.5 47.2001L71.1 49.1001L69.5 47.9001L67.9 49.1001L68.5 47.2001L66.8 46.0001H68.8L69.4 44.1001L70.1 46.0001Z" fill="white"/>
<path d="M50.5 34.8H52.5L50.9001 36L51.5 37.9L50 36.8L48.3 38L48.9001 36.1L47.3 34.9H49.3L50 33L50.5 34.8Z" fill="white"/>
<path d="M45.9 39.5998H47.9L46.2999 40.7999L46.9 42.7L45.2999 41.5L43.7 42.7L44.2999 40.7999L42.7 39.5998H44.7L45.2999 37.7L45.9 39.5998Z" fill="white"/>
<path d="M44.2 46.0001H46.2L44.6 47.2001L45.2 49.1001L43.6 47.9001L42 49.1001L42.6 47.2001L41 46.0001H43L43.6 44.1001L44.2 46.0001Z" fill="white"/>
<path d="M45.9 52.5998H47.9L46.2999 53.7999L46.9 55.7L45.2999 54.5L43.7 55.7L44.2999 53.7999L42.7 52.5998H44.7L45.2999 50.7L45.9 52.5998Z" fill="white"/>
<path d="M50.6 57.2999H52.6L51 58.4999L51.6 60.3999L50 59.1999L48.4 60.3999L49 58.4999L47.4 57.2999H49.4L50 55.3999L50.6 57.2999Z" fill="white"/>
<path d="M143.4 33.0998C143.4 32.7998 143.5 32.7 143.8 32.7H151.2C151.5 32.7 151.6 32.7998 151.6 33.0998V34.2999C151.6 34.4999 151.5 34.7 151.2 34.7H145.7V38.2H150.6C150.9 38.2 151 38.2998 151 38.5998V39.7999C151 39.9999 150.9 40.2 150.6 40.2H145.7V44.2H151.3C151.5 44.2 151.7 44.2998 151.7 44.5998V45.7999C151.7 45.9999 151.6 46.2 151.3 46.2H143.8C143.5 46.2 143.4 46.0999 143.4 45.7999V33.0998Z" fill="white"/>
<path d="M161.8 46.0999H160.4C160.3 46.0999 160.2 46.0999 160.1 45.9999C160 45.8999 160 45.7999 160 45.6999V44.9999C159.8 45.0999 159.6 45.2999 159.3 45.3999C159 45.4999 158.8 45.6999 158.5 45.7999C158.2 45.8999 157.9 45.9999 157.6 46.0999C157.3 46.1999 157 46.1999 156.7 46.1999C156 46.1999 155.5 46.0999 155.1 45.8999C154.7 45.6999 154.4 45.4999 154.2 45.0999C154 44.7999 153.9 44.3999 153.8 43.8999C153.7 43.3999 153.7 42.9999 153.7 42.3999V36.4999C153.7 36.1999 153.8 36.0999 154.1 36.0999H155.6C155.8 36.0999 156 36.1999 156 36.4999V42.0999C156 42.3999 156 42.6999 156.1 42.8999C156.1 43.0999 156.2 43.2999 156.3 43.4999C156.4 43.6999 156.6 43.7999 156.7 43.8999C156.8 43.9999 157.1 43.9999 157.4 43.9999C157.6 43.9999 157.8 43.9999 158.1 43.8999C158.4 43.7999 158.6 43.6999 158.9 43.5999C159.2 43.4999 159.4 43.3999 159.6 43.2999C159.8 43.1999 160 43.0999 160.1 42.9999V36.2999C160.1 36.1999 160.1 36.0999 160.2 35.9999C160.3 35.8999 160.4 35.8999 160.5 35.8999H161.9C162.2 35.8999 162.3 35.9999 162.3 36.2999V45.3999C162.2 45.8999 162.1 46.0999 161.8 46.0999Z" fill="white"/>
<path d="M166.9 45.6999C166.9 45.9999 166.8 46.0999 166.5 46.0999H165C164.7 46.0999 164.6 45.9999 164.6 45.6999V36.5999C164.6 36.2999 164.7 36.1999 165 36.1999H166.4C166.7 36.1999 166.8 36.2999 166.8 36.5999V37.4999C166.9 37.3999 167.1 37.1999 167.4 37.0999C167.6 36.8999 167.9 36.7999 168.2 36.6999C168.5 36.5999 168.8 36.4999 169 36.2999C169.3 36.1999 169.5 36.0999 169.8 36.0999C169.9 36.0999 170 36.0999 170.1 36.0999C170.2 36.0999 170.2 36.1999 170.3 36.3999L170.4 37.6999C170.4 37.7999 170.4 37.9999 170.4 37.9999C170.4 38.0999 170.3 38.0999 170 38.1999C169.7 38.2999 169.4 38.2999 169.1 38.3999C168.8 38.4999 168.5 38.5999 168.2 38.5999C167.9 38.6999 167.6 38.7999 167.4 38.8999C167.1 38.9999 166.9 39.0999 166.8 39.0999V45.6999H166.9Z" fill="white"/>
<path d="M180.2 41C180.2 41.6 180.2 42.2 180.1 42.8C180 43.4 179.8 44 179.5 44.5C179.2 45 178.8 45.4 178.2 45.8C177.6 46.1 176.8 46.3 175.8 46.3C174.8 46.3 174 46.1 173.4 45.8C172.8 45.5 172.4 45.1 172.1 44.5C171.8 44 171.6 43.4 171.6 42.8C171.5 42.2 171.5 41.6 171.5 41C171.5 40.5 171.5 40 171.6 39.4C171.7 38.8 171.9 38.3 172.2 37.8C172.5 37.3 172.9 36.9 173.5 36.5C174.1 36.2 174.8 36 175.8 36C176.8 36 177.6 36.1 178.1 36.4C178.7 36.7 179.1 37.1 179.4 37.6C179.7 38.1 179.9 38.6 180 39.2C180.1 39.8 180.2 40.4 180.2 41ZM177.9 41.1C177.9 40.6 177.9 40.1 177.8 39.7C177.7 39.3 177.6 39 177.5 38.7C177.3 38.4 177.1 38.2 176.8 38.1C176.5 38 176.2 37.9 175.7 37.9C175.3 37.9 174.9 38 174.7 38.1C174.5 38.2 174.2 38.4 174.1 38.7C173.9 39 173.8 39.3 173.8 39.7C173.7 40.1 173.7 40.6 173.7 41.1C173.7 41.6 173.7 42.1 173.8 42.5C173.9 42.9 174 43.2 174.1 43.5C174.2 43.8 174.5 44 174.7 44.1C174.9 44.2 175.3 44.3 175.7 44.3C176.2 44.3 176.5 44.2 176.8 44.1C177.1 44 177.3 43.8 177.5 43.5C177.7 43.2 177.8 42.9 177.8 42.5C177.9 42.1 177.9 41.7 177.9 41.1Z" fill="white"/>
<path d="M190.8 41.1C190.8 41.9 190.7 42.6 190.6 43.3C190.5 43.9 190.3 44.5 190 44.9C189.7 45.3 189.3 45.7 188.8 45.9C188.3 46.1 187.6 46.2 186.8 46.2C186.5 46.2 186.1 46.2 185.6 46.1C185.2 46 184.7 45.9 184.2 45.8V49.3C184.2 49.4 184.2 49.5 184.1 49.6C184 49.7 183.9 49.7 183.8 49.7H182.4C182.2 49.7 182.1 49.7 182.1 49.6C182.1 49.5 182 49.4 182 49.3V36.6C182 36.3 182.1 36.2 182.4 36.2H183.8C183.9 36.2 184 36.2 184.1 36.3C184.2 36.4 184.2 36.5 184.2 36.6V37.2H184.3C184.5 37.1 184.7 37 184.9 36.8C185.1 36.7 185.4 36.5 185.7 36.4C186 36.3 186.3 36.2 186.6 36.1C186.9 36 187.2 36 187.5 36C188.2 36 188.7 36.1 189.1 36.4C189.5 36.6 189.9 37 190.1 37.4C190.3 37.8 190.5 38.4 190.6 39C190.8 39.6 190.8 40.3 190.8 41.1ZM188.5 41.1C188.5 40.5 188.5 39.9 188.4 39.6C188.3 39.3 188.2 38.9 188.1 38.7C188 38.5 187.8 38.3 187.6 38.3C187.4 38.2 187.2 38.2 186.9 38.2C186.7 38.2 186.5 38.2 186.2 38.3C185.9 38.4 185.7 38.4 185.4 38.5C185.2 38.6 184.9 38.7 184.7 38.8C184.5 38.9 184.3 39 184.1 39.1V44.1C184.6 44.2 185 44.3 185.3 44.4C185.6 44.5 186 44.5 186.4 44.5C186.8 44.5 187.1 44.4 187.3 44.3C187.5 44.2 187.7 44 187.9 43.8C188.1 43.5 188.2 43.2 188.2 42.8C188.5 42.2 188.5 41.7 188.5 41.1Z" fill="white"/>
<path d="M194.7 41.7C194.7 42.2 194.8 42.6 194.9 43C195 43.3 195.2 43.5999 195.4 43.7999C195.6 43.9999 195.8 44.1 196.1 44.2C196.4 44.3 196.7 44.2999 197.2 44.2999C197.6 44.2999 198 44.3 198.5 44.2C199 44.1 199.4 44.0998 199.8 44.0998C200 44.0998 200.1 44.0998 200.2 44.0998C200.3 44.0998 200.3 44.2 200.4 44.4L200.5 45.0998C200.5 45.1998 200.5 45.4 200.5 45.5C200.5 45.6 200.4 45.6999 200.2 45.7999C200 45.8999 199.8 46 199.5 46C199.2 46 199 46.1 198.7 46.2C198.4 46.3 198.1 46.2999 197.8 46.2999C197.5 46.2999 197.2 46.2999 197 46.2999C196 46.2999 195.3 46.2 194.7 45.9C194.1 45.6 193.7 45.1999 193.4 44.7999C193.1 44.2999 192.9 43.8 192.8 43.2C192.7 42.6 192.6 41.9999 192.6 41.2999C192.6 40.7999 192.6 40.3 192.7 39.7C192.8 39.1 193 38.5 193.3 38C193.6 37.5 194 37 194.6 36.7C195.2 36.3 195.9 36.2 196.9 36.2C197.8 36.2 198.5 36.2998 199.1 36.5998C199.7 36.8998 200.1 37.1998 200.4 37.5998C200.7 37.9998 200.9 38.5 201 39C201.1 39.5 201.2 40.0998 201.2 40.5998C201.2 40.9998 201.2 41.3 201 41.5C200.8 41.7 200.6 41.7999 200.2 41.7999H194.7V41.7ZM196.7 37.7999C196.3 37.7999 196 37.9 195.8 38C195.6 38.1 195.4 38.3 195.2 38.5C195 38.7 194.9 38.9999 194.9 39.2999C194.8 39.5999 194.8 39.8999 194.8 40.2999H198.8C198.8 39.9999 198.8 39.7 198.7 39.4C198.6 39.1 198.5 38.8998 198.4 38.5998C198.3 38.2998 198.1 38.1998 197.8 38.0998C197.4 37.8998 197.1 37.7999 196.7 37.7999Z" fill="white"/>
<path d="M209 44.8999C208.5 45.2999 207.9 45.5999 207.3 45.7999C206.7 45.9999 206 46.1999 205.3 46.1999C204.8 46.1999 204.3 46.0999 204 45.9999C203.6 45.8999 203.4 45.6999 203.2 45.3999C203 45.1999 202.8 44.8999 202.8 44.4999C202.7 44.1999 202.7 43.7999 202.7 43.2999C202.7 42.0999 203 41.2999 203.6 40.6999C204.2 40.1999 205.2 39.8999 206.4 39.8999H209V39.3999C209 39.0999 209 38.8999 208.9 38.5999C208.8 38.3999 208.7 38.1999 208.6 38.0999C208.4 37.9999 208.2 37.8999 208 37.7999C207.7 37.6999 207.4 37.6999 207 37.6999C206.8 37.6999 206.6 37.6999 206.4 37.6999C206.2 37.6999 205.9 37.6999 205.7 37.6999C205.5 37.6999 205.2 37.6999 205 37.7999C204.8 37.7999 204.5 37.7999 204.3 37.8999C204.1 37.8999 204 37.8999 203.9 37.8999C203.8 37.8999 203.8 37.7999 203.7 37.5999L203.5 36.8999C203.5 36.7999 203.5 36.6999 203.5 36.5999C203.6 36.4999 203.7 36.3999 203.9 36.2999C204.1 36.1999 204.4 36.1999 204.7 36.0999C205 35.9999 205.3 35.9999 205.6 35.9999C205.9 35.9999 206.2 35.8999 206.5 35.8999C206.8 35.8999 207.1 35.8999 207.3 35.8999C208.2 35.8999 208.9 35.9999 209.4 36.1999C209.9 36.3999 210.3 36.5999 210.6 36.8999C210.9 37.1999 211 37.5999 211.1 38.0999C211.2 38.5999 211.2 39.0999 211.2 39.5999V43.4999C211.2 43.6999 211.2 43.8999 211.2 43.9999C211.2 44.0999 211.3 44.1999 211.3 44.2999C211.3 44.3999 211.4 44.3999 211.5 44.3999C211.6 44.3999 211.7 44.3999 211.9 44.4999C212 44.4999 212.1 44.4999 212.2 44.5999C212.3 44.5999 212.3 44.6999 212.3 44.7999V45.5999C212.3 45.7999 212.1 45.9999 211.8 45.9999C211.6 45.9999 211.5 45.9999 211.3 46.0999C211.1 46.0999 211 46.0999 210.8 46.0999C210.3 46.0999 210 45.9999 209.7 45.7999C209.3 45.6999 209.1 45.3999 209 44.8999ZM208.9 41.5999H206.5C206 41.5999 205.6 41.6999 205.3 41.9999C205 42.1999 204.9 42.6999 204.9 43.2999C204.9 43.6999 205 43.9999 205.2 44.1999C205.4 44.3999 205.7 44.4999 206.2 44.4999C206.4 44.4999 206.6 44.4999 206.9 44.3999C207.2 44.2999 207.4 44.2999 207.7 44.1999C208 44.0999 208.2 43.9999 208.4 43.8999C208.6 43.7999 208.9 43.6999 209 43.5999V41.5999H208.9Z" fill="white"/>
<path d="M222.1 46C222 46.1 221.9 46.0998 221.8 46.0998H220.3C220 46.0998 219.9 46 219.9 45.7V40.0998C219.9 39.4998 219.8 39 219.6 38.7C219.4 38.3 219 38.2 218.4 38.2C218.2 38.2 218 38.1999 217.7 38.2999C217.4 38.3999 217.2 38.4998 216.9 38.5998C216.6 38.6998 216.4 38.8 216.2 38.9C216 39 215.8 39.1 215.7 39.2V45.9C215.7 46.2 215.6 46.2999 215.3 46.2999H213.9C213.6 46.2999 213.5 46.2 213.5 45.9V36.7999C213.5 36.4999 213.6 36.4 213.9 36.4H215.3C215.6 36.4 215.7 36.4999 215.7 36.7999V37.4C215.9 37.3 216.1 37.1 216.4 37C216.7 36.9 216.9 36.6998 217.2 36.5998C217.5 36.4998 217.8 36.3999 218.1 36.2999C218.4 36.1999 218.7 36.2 219 36.2C219.7 36.2 220.2 36.3 220.6 36.5C221 36.7 221.3 36.9999 221.5 37.2999C221.7 37.5999 221.8 38.1 221.9 38.5C222 39 222 39.4 222 40V45.7999C222.1 45.7999 222.1 45.9 222.1 46Z" fill="white"/>
<path d="M143.2 59.7999C143.2 58.8999 143.3 58.0999 143.4 57.2999C143.5 56.4999 143.8 55.6999 144.2 55.0999C144.6 54.4999 145.1 53.8999 145.8 53.4999C146.5 53.0999 147.4 52.8999 148.6 52.8999C148.8 52.8999 149.1 52.8999 149.4 52.8999C149.7 52.8999 150 52.9999 150.4 52.9999C150.7 52.9999 151.1 53.0999 151.4 53.1999C151.7 53.2999 152 53.3999 152.3 53.4999C152.5 53.5999 152.6 53.5999 152.6 53.6999C152.6 53.7999 152.7 53.8999 152.7 54.0999L152.5 54.8999C152.5 54.9999 152.4 55.0999 152.4 55.1999C152.3 55.2999 152.2 55.2999 152 55.1999C151.5 55.0999 151 55.0999 150.4 54.9999C149.8 54.8999 149.3 54.8999 148.8 54.8999C148.1 54.8999 147.6 54.9999 147.2 55.2999C146.8 55.5999 146.5 55.8999 146.2 56.2999C146 56.6999 145.8 57.2999 145.8 57.7999C145.8 58.2999 145.7 58.9999 145.7 59.6999C145.7 60.3999 145.7 60.9999 145.8 61.4999C145.9 62.0999 146 62.5999 146.3 62.9999C146.5 63.3999 146.8 63.7999 147.3 63.9999C147.7 64.1999 148.2 64.3999 148.9 64.3999C149.5 64.3999 150 64.3999 150.5 64.2999C151 64.1999 151.5 64.1999 152.1 64.0999C152.3 64.0999 152.4 64.0999 152.5 64.0999C152.6 64.1999 152.6 64.1999 152.7 64.3999L152.9 65.1999C153 65.4999 152.9 65.6999 152.6 65.7999C152.4 65.8999 152.1 65.9999 151.7 66.0999C151.4 66.1999 151 66.1999 150.7 66.2999C150.4 66.3999 150 66.3999 149.7 66.3999C149.4 66.3999 149.1 66.3999 148.8 66.3999C147.7 66.3999 146.8 66.1999 146.1 65.7999C145.4 65.3999 144.8 64.8999 144.5 64.2999C144.1 63.6999 143.8 62.9999 143.7 62.1999C143.3 61.4999 143.2 60.6999 143.2 59.7999Z" fill="white"/>
<path d="M162.9 61.2998C162.9 61.8998 162.9 62.4998 162.8 63.0998C162.7 63.6998 162.5 64.2998 162.2 64.7998C161.9 65.2998 161.5 65.6998 160.9 66.0998C160.3 66.3998 159.5 66.5998 158.5 66.5998C157.5 66.5998 156.7 66.3998 156.1 66.0998C155.5 65.7998 155.1 65.3998 154.8 64.7998C154.5 64.2998 154.3 63.6998 154.3 63.0998C154.2 62.4998 154.2 61.8998 154.2 61.2998C154.2 60.7998 154.2 60.2998 154.3 59.6998C154.4 59.0998 154.6 58.5998 154.9 58.0998C155.2 57.5998 155.6 57.1998 156.2 56.7998C156.8 56.4998 157.5 56.2998 158.5 56.2998C159.5 56.2998 160.3 56.3998 160.8 56.6998C161.4 56.9998 161.8 57.3998 162.1 57.8998C162.4 58.3998 162.6 58.8998 162.7 59.4998C162.8 60.0998 162.9 60.6998 162.9 61.2998ZM160.6 61.3998C160.6 60.8998 160.6 60.3998 160.5 59.9998C160.4 59.5998 160.3 59.2998 160.2 58.9998C160 58.6998 159.8 58.4998 159.5 58.3998C159.2 58.2998 158.9 58.1998 158.4 58.1998C158 58.1998 157.6 58.2998 157.4 58.3998C157.2 58.4998 156.9 58.6998 156.8 58.9998C156.6 59.2998 156.5 59.5998 156.5 59.9998C156.4 60.3998 156.4 60.8998 156.4 61.3998C156.4 61.8998 156.4 62.3998 156.5 62.7998C156.6 63.1998 156.7 63.4998 156.8 63.7998C156.9 64.0998 157.2 64.2998 157.4 64.3998C157.6 64.4998 158 64.5998 158.4 64.5998C158.9 64.5998 159.2 64.4998 159.5 64.3998C159.8 64.2998 160 64.0998 160.2 63.7998C160.4 63.4998 160.5 63.1998 160.5 62.7998C160.5 62.3998 160.6 61.9998 160.6 61.3998Z" fill="white"/>
<path d="M179.2 66.2998C179.2 66.3998 179.1 66.3998 178.9 66.3998H177.5C177.2 66.3998 177.1 66.2998 177.1 65.9998V60.2998C177.1 59.5998 177 58.9998 176.8 58.7998C176.6 58.4998 176.2 58.3998 175.7 58.3998C175.5 58.3998 175.3 58.3998 175.1 58.4998C174.9 58.5998 174.6 58.5998 174.4 58.6998C174.2 58.7998 173.9 58.8998 173.7 58.9998C173.5 59.0998 173.3 59.1998 173.1 59.2998C173.1 59.3998 173.1 59.4998 173.1 59.6998C173.1 59.8998 173.1 60.0998 173.1 60.2998V65.9998C173.1 66.0998 173.1 66.1998 173 66.2998C172.9 66.3998 172.8 66.3998 172.7 66.3998H171.2C171 66.3998 170.9 66.2998 170.9 65.9998V60.1998C170.9 59.5998 170.8 59.0998 170.6 58.7998C170.4 58.4998 170.1 58.3998 169.6 58.3998C169.4 58.3998 169.2 58.3998 169 58.4998C168.8 58.5998 168.6 58.5998 168.3 58.6998C168.1 58.7998 167.8 58.8998 167.6 58.9998C167.4 59.0998 167.2 59.1998 167 59.2998V65.9998C167 66.2998 166.9 66.3998 166.6 66.3998H165.2C165 66.3998 164.8 66.2998 164.8 65.9998V56.8998C164.8 56.5998 164.9 56.4998 165.2 56.4998H166.6C166.9 56.4998 167 56.5998 167 56.8998V57.4998C167.2 57.3998 167.4 57.1998 167.6 57.0998C167.8 56.9998 168.1 56.7998 168.3 56.6998C168.5 56.5998 168.8 56.4998 169.1 56.3998C169.4 56.2998 169.6 56.2998 169.9 56.2998C170.5 56.2998 171 56.3998 171.5 56.5998C172 56.7998 172.4 57.1998 172.7 57.6998C173.2 57.2998 173.8 56.9998 174.4 56.6998C175 56.3998 175.6 56.2998 176.3 56.2998C177 56.2998 177.5 56.3998 177.9 56.5998C178.3 56.7998 178.6 57.0998 178.8 57.3998C179 57.6998 179.1 58.0998 179.2 58.5998C179.3 59.0998 179.3 59.4998 179.3 59.9998V65.9998C179.2 66.0998 179.2 66.1998 179.2 66.2998Z" fill="white"/>
<path d="M195.7 66.2998C195.7 66.3998 195.6 66.3998 195.4 66.3998H194C193.7 66.3998 193.6 66.2998 193.6 65.9998V60.2998C193.6 59.5998 193.5 58.9998 193.3 58.7998C193.1 58.4998 192.7 58.3998 192.2 58.3998C192 58.3998 191.8 58.3998 191.6 58.4998C191.4 58.5998 191.1 58.5998 190.9 58.6998C190.7 58.7998 190.4 58.8998 190.2 58.9998C190 59.0998 189.8 59.1998 189.6 59.2998C189.6 59.3998 189.6 59.4998 189.6 59.6998C189.6 59.8998 189.6 60.0998 189.6 60.2998V65.9998C189.6 66.0998 189.6 66.1998 189.5 66.2998C189.4 66.3998 189.3 66.3998 189.2 66.3998H187.7C187.5 66.3998 187.4 66.2998 187.4 65.9998V60.1998C187.4 59.5998 187.3 59.0998 187.1 58.7998C186.9 58.4998 186.6 58.3998 186.1 58.3998C185.9 58.3998 185.7 58.3998 185.5 58.4998C185.3 58.5998 185.1 58.5998 184.8 58.6998C184.5 58.7998 184.3 58.8998 184.1 58.9998C183.9 59.0998 183.7 59.1998 183.5 59.2998V65.9998C183.5 66.2998 183.4 66.3998 183.1 66.3998H181.7C181.5 66.3998 181.3 66.2998 181.3 65.9998V56.8998C181.3 56.5998 181.4 56.4998 181.7 56.4998H183.1C183.4 56.4998 183.5 56.5998 183.5 56.8998V57.4998C183.7 57.3998 183.9 57.1998 184.1 57.0998C184.3 56.9998 184.6 56.7998 184.8 56.6998C185.1 56.5998 185.3 56.4998 185.6 56.3998C185.9 56.2998 186.1 56.2998 186.4 56.2998C187 56.2998 187.5 56.3998 188 56.5998C188.5 56.7998 188.9 57.1998 189.2 57.6998C189.7 57.2998 190.3 56.9998 190.9 56.6998C191.5 56.3998 192.1 56.2998 192.8 56.2998C193.5 56.2998 194 56.3998 194.4 56.5998C194.8 56.7998 195.1 57.0998 195.3 57.3998C195.5 57.6998 195.6 58.0998 195.7 58.5998C195.8 59.0998 195.8 59.4998 195.8 59.9998V65.9998C195.8 66.0998 195.7 66.1998 195.7 66.2998Z" fill="white"/>
<path d="M200.5 53.8999C200.5 54.0999 200.5 54.1999 200.5 54.3999C200.5 54.4999 200.4 54.6999 200.3 54.7999C200.2 54.8999 200.1 54.9999 199.9 55.0999C199.7 55.1999 199.5 55.1999 199.3 55.1999C199 55.1999 198.8 55.1999 198.7 55.0999C198.5 54.9999 198.4 54.8999 198.3 54.7999C198.2 54.6999 198.2 54.5999 198.1 54.3999C198.1 54.2999 198.1 54.0999 198.1 53.9999C198.1 53.6999 198.2 53.3999 198.3 53.1999C198.5 52.9999 198.8 52.8999 199.3 52.8999C199.8 52.8999 200.1 52.9999 200.3 53.1999C200.4 53.2999 200.5 53.5999 200.5 53.8999ZM200.4 65.9999C200.4 66.0999 200.4 66.1999 200.3 66.2999C200.3 66.3999 200.2 66.3999 200 66.3999H198.6C198.3 66.3999 198.2 66.2999 198.2 65.9999V56.8999C198.2 56.5999 198.3 56.4999 198.6 56.4999H200C200.1 56.4999 200.2 56.4999 200.3 56.5999C200.3 56.6999 200.4 56.7999 200.4 56.8999V65.9999Z" fill="white"/>
<path d="M210.2 63.4C210.2 64 210.1 64.5 209.9 64.9C209.7 65.3 209.4 65.6 209 65.9C208.6 66.1 208.2 66.3 207.7 66.4C207.2 66.5 206.7 66.5998 206.2 66.5998C205.7 66.5998 205.1 66.6 204.6 66.5C204 66.4 203.5 66.2998 203.1 66.1998C202.9 66.0998 202.8 66 202.7 65.9C202.6 65.8 202.6 65.7 202.7 65.5L202.8 64.8C202.8 64.6 202.9 64.5 203 64.5C203.1 64.5 203.2 64.5 203.4 64.5C203.6 64.5 203.9 64.5998 204.1 64.5998C204.4 64.5998 204.6 64.5998 204.9 64.6998C205.2 64.6998 205.4 64.7 205.6 64.8C205.8 64.8 206 64.8 206.2 64.8C206.8 64.8 207.3 64.7 207.6 64.5C207.9 64.3 208 63.9998 208 63.5998C208 63.3998 208 63.2 207.9 63C207.8 62.8 207.8 62.6998 207.6 62.5998C207.4 62.4998 207.3 62.4 207.1 62.4C206.9 62.3 206.6 62.3 206.3 62.2C205.8 62.1 205.3 62 204.9 61.9C204.5 61.8 204.1 61.6 203.7 61.4C203.4 61.2 203.1 60.8998 202.9 60.5998C202.7 60.2998 202.6 59.7999 202.6 59.2999C202.6 58.2999 202.9 57.6 203.6 57C204.3 56.5 205.2 56.2 206.3 56.2C206.5 56.2 206.7 56.2 207 56.2C207.3 56.2 207.5 56.1999 207.8 56.2999C208.1 56.2999 208.3 56.4 208.6 56.4C208.9 56.4 209.1 56.4998 209.3 56.5998C209.6 56.6998 209.8 56.9 209.7 57.2L209.5 57.9C209.5 58 209.4 58.1 209.3 58.2C209.2 58.2 209.1 58.2 208.9 58.2C208.5 58.1 208 58.1 207.5 58C207 58 206.6 57.9 206.2 57.9C205.6 57.9 205.1 58 204.9 58.2C204.7 58.4 204.6 58.6998 204.6 59.0998C204.6 59.4998 204.7 59.7 205 59.9C205.3 60 205.7 60.1 206.3 60.2C206.8 60.3 207.2 60.4 207.7 60.5C208.2 60.6 208.5 60.8 208.9 61C209.2 61.2 209.5 61.5 209.7 61.9C210.1 62.3 210.2 62.8 210.2 63.4Z" fill="white"/>
<path d="M219.4 63.4C219.4 64 219.3 64.5 219.1 64.9C218.9 65.3 218.6 65.6 218.2 65.9C217.8 66.1 217.4 66.3 216.9 66.4C216.4 66.5 215.9 66.5998 215.4 66.5998C214.9 66.5998 214.3 66.6 213.8 66.5C213.2 66.4 212.7 66.2998 212.3 66.1998C212.1 66.0998 212 66 211.9 65.9C211.8 65.8 211.8 65.7 211.9 65.5L212 64.8C212 64.6 212.1 64.5 212.2 64.5C212.3 64.5 212.4 64.5 212.6 64.5C212.8 64.5 213.1 64.5998 213.3 64.5998C213.6 64.5998 213.8 64.5998 214.1 64.6998C214.4 64.6998 214.6 64.7 214.8 64.8C215 64.8 215.2 64.8 215.4 64.8C216 64.8 216.5 64.7 216.8 64.5C217.1 64.3 217.2 63.9998 217.2 63.5998C217.2 63.3998 217.2 63.2 217.1 63C217 62.8 217 62.6998 216.8 62.5998C216.6 62.4998 216.5 62.4 216.3 62.4C216.1 62.3 215.8 62.3 215.5 62.2C215 62.1 214.5 62 214.1 61.9C213.7 61.8 213.3 61.6 212.9 61.4C212.6 61.2 212.3 60.8998 212.1 60.5998C211.9 60.2998 211.8 59.7999 211.8 59.2999C211.8 58.2999 212.1 57.6 212.8 57C213.5 56.5 214.4 56.2 215.5 56.2C215.7 56.2 215.9 56.2 216.2 56.2C216.5 56.2 216.7 56.1999 217 56.2999C217.3 56.2999 217.5 56.4 217.8 56.4C218.1 56.4 218.3 56.4998 218.5 56.5998C218.8 56.6998 219 56.9 218.9 57.2L218.7 57.9C218.7 58 218.6 58.1 218.5 58.2C218.4 58.2 218.3 58.2 218.1 58.2C217.7 58.1 217.2 58.1 216.7 58C216.2 58 215.8 57.9 215.4 57.9C214.8 57.9 214.3 58 214.1 58.2C213.9 58.4 213.8 58.6998 213.8 59.0998C213.8 59.4998 213.9 59.7 214.2 59.9C214.5 60 214.9 60.1 215.5 60.2C216 60.3 216.4 60.4 216.9 60.5C217.4 60.6 217.7 60.8 218.1 61C218.4 61.2 218.7 61.5 218.9 61.9C219.3 62.3 219.4 62.8 219.4 63.4Z" fill="white"/>
<path d="M223.9 53.8999C223.9 54.0999 223.9 54.1999 223.9 54.3999C223.9 54.4999 223.8 54.6999 223.7 54.7999C223.6 54.8999 223.5 54.9999 223.3 55.0999C223.1 55.1999 222.9 55.1999 222.7 55.1999C222.4 55.1999 222.2 55.1999 222.1 55.0999C221.9 54.9999 221.8 54.8999 221.7 54.7999C221.6 54.6999 221.6 54.5999 221.5 54.3999C221.5 54.2999 221.5 54.0999 221.5 53.9999C221.5 53.6999 221.6 53.3999 221.7 53.1999C221.9 52.9999 222.2 52.8999 222.7 52.8999C223.2 52.8999 223.5 52.9999 223.7 53.1999C223.8 53.2999 223.9 53.5999 223.9 53.8999ZM223.8 65.9999C223.8 66.0999 223.8 66.1999 223.7 66.2999C223.7 66.3999 223.6 66.3999 223.4 66.3999H222C221.7 66.3999 221.6 66.2999 221.6 65.9999V56.8999C221.6 56.5999 221.7 56.4999 222 56.4999H223.4C223.5 56.4999 223.6 56.4999 223.7 56.5999C223.7 56.6999 223.8 56.7999 223.8 56.8999V65.9999Z" fill="white"/>
<path d="M234.8 61.2998C234.8 61.8998 234.8 62.4998 234.7 63.0998C234.6 63.6998 234.4 64.2998 234.1 64.7998C233.8 65.2998 233.4 65.6998 232.8 66.0998C232.2 66.3998 231.4 66.5998 230.4 66.5998C229.4 66.5998 228.6 66.3998 228 66.0998C227.4 65.7998 227 65.3998 226.7 64.7998C226.4 64.2998 226.2 63.6998 226.2 63.0998C226.1 62.4998 226.1 61.8998 226.1 61.2998C226.1 60.7998 226.1 60.2998 226.2 59.6998C226.3 59.0998 226.5 58.5998 226.8 58.0998C227.1 57.5998 227.5 57.1998 228.1 56.7998C228.7 56.4998 229.4 56.2998 230.4 56.2998C231.4 56.2998 232.2 56.3998 232.7 56.6998C233.3 56.9998 233.7 57.3998 234 57.8998C234.3 58.3998 234.5 58.8998 234.6 59.4998C234.7 60.0998 234.8 60.6998 234.8 61.2998ZM232.5 61.3998C232.5 60.8998 232.5 60.3998 232.4 59.9998C232.3 59.5998 232.2 59.2998 232.1 58.9998C231.9 58.6998 231.7 58.4998 231.4 58.3998C231.1 58.2998 230.8 58.1998 230.3 58.1998C229.9 58.1998 229.5 58.2998 229.3 58.3998C229.1 58.4998 228.8 58.6998 228.7 58.9998C228.5 59.2998 228.4 59.5998 228.4 59.9998C228.3 60.3998 228.3 60.8998 228.3 61.3998C228.3 61.8998 228.3 62.3998 228.4 62.7998C228.5 63.1998 228.6 63.4998 228.7 63.7998C228.8 64.0998 229.1 64.2998 229.3 64.3998C229.5 64.4998 229.9 64.5998 230.3 64.5998C230.8 64.5998 231.1 64.4998 231.4 64.3998C231.7 64.2998 231.9 64.0998 232.1 63.7998C232.3 63.4998 232.4 63.1998 232.4 62.7998C232.4 62.3998 232.5 61.9998 232.5 61.3998Z" fill="white"/>
<path d="M245.2 66.2998C245.1 66.3998 245 66.3998 244.9 66.3998H243.4C243.1 66.3998 243 66.2998 243 65.9998V60.3998C243 59.7998 242.9 59.2998 242.7 58.9998C242.5 58.5998 242.1 58.4998 241.5 58.4998C241.3 58.4998 241.1 58.4998 240.8 58.5998C240.5 58.6998 240.3 58.7998 240 58.8998C239.7 58.9998 239.5 59.0998 239.3 59.1998C239.1 59.2998 238.9 59.3998 238.8 59.4998V65.9998C238.8 66.2998 238.7 66.3998 238.4 66.3998H237C236.7 66.3998 236.6 66.2998 236.6 65.9998V56.8998C236.6 56.5998 236.7 56.4998 237 56.4998H238.4C238.7 56.4998 238.8 56.5998 238.8 56.8998V57.4998C239 57.3998 239.2 57.1998 239.5 57.0998C239.8 56.9998 240 56.7998 240.3 56.6998C240.6 56.5998 240.9 56.4998 241.2 56.3998C241.5 56.2998 241.8 56.2998 242.1 56.2998C242.8 56.2998 243.3 56.3998 243.7 56.5998C244.1 56.7998 244.4 57.0998 244.6 57.3998C244.8 57.6998 244.9 58.1998 245 58.5998C245.1 59.0998 245.1 59.4998 245.1 60.0998V65.9998C245.3 66.0998 245.2 66.1998 245.2 66.2998Z" fill="white"/>
<path d="M257.5 28H254.2V66.7H257.5V28Z" fill="white"/>
</g>
<defs>
<clipPath id="clip0_51_2149">
<rect width="258" height="67" fill="white"/>
</clipPath>
</defs>
</svg>
