<svg width="18" height="18" viewBox="0 0 18 18" fill="none" xmlns="http://www.w3.org/2000/svg">
<path d="M14.3991 15.8493C14.3991 16.1458 14.1579 16.3869 13.8615 16.3869H2.15067C1.8542 16.3869 1.61306 16.1458 1.61306 15.8493V4.13851C1.61306 3.84204 1.85421 3.6009 2.15067 3.6009H10.2098V1.98784H2.15067C0.964804 1.98784 0 2.95264 0 4.13851V15.8493C0 17.0352 0.964804 18 2.15067 18H13.8615C15.0474 18 16.0122 17.0352 16.0122 15.8493V8.11188H14.3991V15.8493ZM11.2345 0V1.61306H15.2467L5.01633 11.8434L6.15664 12.9837L16.387 2.75337V6.76534H18L17.9999 0H11.2345Z" fill="#4A9CAC"/>
</svg>
