<svg width="18" height="14" viewBox="0 0 18 14" fill="none" xmlns="http://www.w3.org/2000/svg">
<path d="M17.6596 6.27922L11.8928 0.512443C11.4957 0.115319 10.8528 0.115319 10.4747 0.512443C10.0776 0.909567 10.0776 1.55239 10.4747 1.9305L14.5398 5.99561H1.0021C0.453847 5.99561 0 6.44942 0 6.9977C0 7.54598 0.453813 7.9998 1.0021 7.9998H14.5209L10.4747 12.0649C10.0776 12.462 10.0776 13.1048 10.4747 13.483C10.6639 13.6721 10.9285 13.7855 11.1932 13.7855C11.4579 13.7855 11.7038 13.6909 11.9118 13.483L17.6974 7.69728C17.8866 7.50815 18 7.24346 18 6.97876C17.9621 6.73305 17.8487 6.46836 17.6596 6.27922H17.6596Z" fill="#4A9CAC"/>
</svg>
